<?xml version="1.0" standalone="no"?>
<!DOCTYPE svg PUBLIC "-//W3C//DTD SVG 20010904//EN"
 "http://www.w3.org/TR/2001/REC-SVG-20010904/DTD/svg10.dtd">
<svg version="1.0" xmlns="http://www.w3.org/2000/svg"
 width="200.000000pt" height="200.000000pt" viewBox="0 0 200.000000 200.000000"
 preserveAspectRatio="xMidYMid meet">
<metadata>
Created by potrace 1.15, written by Peter Selinger 2001-2017
</metadata>
<g transform="translate(0.000000,200.000000) scale(0.100000,-0.100000)"
fill="#000000" stroke="none">
<path d="M1362 1889 c-22 -9 -36 -32 -46 -81 l-6 -28 -140 0 -140 0 6 40 c8
48 -7 70 -47 70 -19 0 -34 -8 -43 -22 -14 -22 -316 -1675 -316 -1731 0 -19 7
-31 25 -39 37 -17 72 10 82 64 l9 43 139 0 139 0 -3 -47 c-2 -38 1 -48 18 -57
26 -15 68 2 81 31 13 33 312 1707 308 1731 -4 25 -35 37 -66 26z m-72 -210 c0
-5 -5 -41 -11 -80 l-12 -69 -138 0 c-158 0 -146 -9 -128 97 l11 63 139 0 c91
0 139 -4 139 -11z m-40 -244 c0 -4 -16 -85 -26 -132 -4 -23 -7 -23 -144 -23
-77 0 -140 1 -140 3 0 9 22 124 26 140 5 15 21 17 145 17 76 0 139 -2 139 -5z
m-50 -252 c0 -9 -5 -45 -11 -80 l-11 -63 -139 0 c-108 0 -139 3 -139 13 0 20
21 131 27 140 2 4 65 7 139 7 118 0 134 -2 134 -17z m-41 -245 c0 -7 -6 -42
-13 -78 l-12 -65 -142 -3 -143 -3 5 23 c3 13 10 49 16 81 l11 57 140 0 c105 0
139 -3 138 -12z m-55 -310 c-8 -40 -14 -76 -14 -80 0 -5 -63 -8 -140 -8 -92 0
-140 4 -140 11 0 5 5 41 11 80 l12 69 142 0 143 0 -14 -72z m-35 -190 c0 -7
-6 -42 -13 -78 l-12 -65 -140 0 -139 0 3 25 c2 14 7 49 13 78 l10 52 140 0
c105 0 139 -3 138 -12z"/>
</g>
</svg>
